<?xml version="1.0" encoding="UTF-8" standalone="no"?>
<!-- Generator: Adobe Illustrator 17.1.0, SVG Export Plug-In . SVG Version: 6.00 Build 0)  -->

<svg
   xmlns:dc="http://purl.org/dc/elements/1.1/"
   xmlns:cc="http://creativecommons.org/ns#"
   xmlns:rdf="http://www.w3.org/1999/02/22-rdf-syntax-ns#"
   xmlns:svg="http://www.w3.org/2000/svg"
   xmlns="http://www.w3.org/2000/svg"
   xmlns:sodipodi="http://sodipodi.sourceforge.net/DTD/sodipodi-0.dtd"
   xmlns:inkscape="http://www.inkscape.org/namespaces/inkscape"
   version="1.1"
   id="Capa_1"
   x="0px"
   y="0px"
   viewBox="0 0 368.554 368.554"
   style="enable-background:new 0 0 368.554 368.554;"
   xml:space="preserve"
   width="512px"
   height="512px"
   sodipodi:docname="b.svg"
   inkscape:version="0.92.2 2405546, 2018-03-11"><metadata
   id="metadata39"><rdf:RDF><cc:Work
       rdf:about=""><dc:format>image/svg+xml</dc:format><dc:type
         rdf:resource="http://purl.org/dc/dcmitype/StillImage" /></cc:Work></rdf:RDF></metadata><defs
   id="defs37" /><sodipodi:namedview
   pagecolor="#ffffff"
   bordercolor="#666666"
   borderopacity="1"
   objecttolerance="10"
   gridtolerance="10"
   guidetolerance="10"
   inkscape:pageopacity="0"
   inkscape:pageshadow="2"
   inkscape:window-width="1920"
   inkscape:window-height="1017"
   id="namedview35"
   showgrid="false"
   inkscape:zoom="1.84375"
   inkscape:cx="309.34696"
   inkscape:cy="229.5666"
   inkscape:window-x="0"
   inkscape:window-y="0"
   inkscape:window-maximized="1"
   inkscape:current-layer="Capa_1" />
<path
   d="M 361.054,47.932 H 7.5 c -4.142,0 -7.5,3.358 -7.5,7.5 v 207.5 c 0,4.142 3.3580044,7.49395 7.5,7.5 l 133.70251,0.19521 c 4.142,0.006 2.22937,-3.94363 2.22937,-8.08563 0,-4.142 2.69347,-7.10958 -1.44853,-7.10958 H 15 v -192.5 h 338.554 v 192.5 H 226.83 c -2.204,0 -4.296,0.969 -5.721,2.65 l -36.833,43.443 -36.833,-43.443 c -2.678,-3.16 -7.41,-3.55 -10.571,-0.871 -3.16,2.679 -3.549,7.412 -0.871,10.571 l 42.553,50.19 c 1.425,1.681 3.517,2.65 5.721,2.65 2.204,0 4.295,-0.969 5.721,-2.65 l 40.307,-47.541 h 130.75 c 4.142,0 7.5,-3.358 7.5,-7.5 v -207.5 c 10e-4,-4.141 -3.357,-7.499 -7.499,-7.499 z"
   id="path2"
   inkscape:connector-curvature="0"
   style="fill:#ffffff"
   sodipodi:nodetypes="ssssssssccccsccccccsccsscs" />
<g
   id="g4">
</g>
<g
   id="g6">
</g>
<g
   id="g8">
</g>
<g
   id="g10">
</g>
<g
   id="g12">
</g>
<g
   id="g14">
</g>
<g
   id="g16">
</g>
<g
   id="g18">
</g>
<g
   id="g20">
</g>
<g
   id="g22">
</g>
<g
   id="g24">
</g>
<g
   id="g26">
</g>
<g
   id="g28">
</g>
<g
   id="g30">
</g>
<g
   id="g32">
</g>
</svg>